# xmcd CD database file
#
# Track frame offsets:
#	150
#	20840
#	41025
#	60495
#	80088
#	101095
#	118155
#	139453
#	159368
#	181108
#	202138
#	219550
#	238838
#
# Disc length: 3426 seconds
#
# Revision: 1
# Processed by: cddbd v1.5.2PL0 Copyright (c) Steve Scherf et al.
# Submitted via: CDex 1.70beta3
#
DISCID=c40d600d
DTITLE=Porno Graffitti - BEST RED'S
DYEAR=1900
DGENRE=Blues
TTITLE0=Music Hour
TTITLE1=Century Lovers
TTITLE2=Ai ga Yobu Hou he
TTITLE3=Saudage
TTITLE4=Voice
TTITLE5=Lack
TTITLE6=Shiawase ni Tsuite Honki dashite Kangaete mita
TTITLE7=Go Steady Go!
TTITLE8=Ookami
TTITLE9=Vintage
TTITLE10=Dilemma
TTITLE11=Mugen
TTITLE12=Films
EXTD=
EXTT0=
EXTT1=
EXTT2=
EXTT3=
EXTT4=
EXTT5=
EXTT6=
EXTT7=
EXTT8=
EXTT9=
EXTT10=
EXTT11=
EXTT12=
PLAYORDER=
